<svg width="512" height="512" viewBox="0 0 512 512" fill="none" xmlns="http://www.w3.org/2000/svg">
<rect width="512" height="512" fill="#F47152"/>
<path d="M374.768 359.856C387.067 371.843 406.953 371.66 416.801 357.572C432.98 334.427 444.081 307.95 449.202 279.894C456.197 241.57 451.72 202.023 436.337 166.255C420.954 130.487 395.355 100.103 362.779 78.9461C330.203 57.7894 292.111 46.8098 253.322 47.396C214.533 47.982 176.788 60.1074 144.86 82.2388C112.932 104.37 88.2551 135.513 73.9502 171.73C59.6453 207.947 56.3547 247.611 64.4944 285.707C70.4532 313.595 82.3418 339.725 99.2074 362.371C109.473 376.154 129.355 375.737 141.29 363.384C153.225 351.03 152.551 331.429 143.317 316.928C134.727 303.438 128.556 288.447 125.176 272.628C119.612 246.586 121.861 219.473 131.64 194.715C141.419 169.958 158.287 148.669 180.113 133.541C201.938 118.412 227.74 110.123 254.256 109.723C280.771 109.322 306.81 116.827 329.078 131.29C351.347 145.752 368.846 166.522 379.361 190.973C389.877 215.423 392.937 242.457 388.156 268.654C385.251 284.568 379.532 299.739 371.35 313.483C362.555 328.256 362.468 347.869 374.768 359.856Z" fill="white"/>
<path d="M174.896 382.491C158.966 390.986 152.655 411.253 164.937 424.519C173.053 433.286 182.412 440.885 192.761 447.048C212.531 458.821 235.146 464.899 258.128 464.617C281.11 464.334 303.571 457.702 323.047 445.446C333.243 439.03 342.414 431.204 350.314 422.24C362.269 408.676 355.466 388.571 339.334 380.47C323.202 372.369 303.654 380.239 288.37 389.857C279.057 395.717 269.707 405.403 257.329 405.403C246.34 405.538 235.526 396.252 226.073 390.623C210.559 381.384 190.825 373.996 174.896 382.491Z" fill="white"/>
<path d="M236.495 269.548C221.148 266.412 210.721 264.282 210.721 283.027C210.721 310.227 232.675 332.277 259.757 332.277C286.839 332.277 308.793 310.227 308.793 283.027C308.793 264.282 298.366 266.412 283.019 269.548C276.097 270.962 268.175 272.58 259.757 272.58C251.339 272.58 243.417 270.962 236.495 269.548Z" fill="white"/>
<path d="M191.575 224.163C191.575 231.581 185.587 237.595 178.201 237.595C170.815 237.595 164.828 231.581 164.828 224.163C164.828 216.745 170.815 210.732 178.201 210.732C185.587 210.732 191.575 216.745 191.575 224.163Z" fill="white"/>
<path d="M338.683 237.595C346.069 237.595 352.057 231.581 352.057 224.163C352.057 216.745 346.069 210.732 338.683 210.732C331.297 210.732 325.31 216.745 325.31 224.163C325.31 231.581 331.297 237.595 338.683 237.595Z" fill="white"/>
</svg>
