<svg width="785" height="835" viewBox="0 0 785 835" fill="none" xmlns="http://www.w3.org/2000/svg">
<path d="M629.279 624.964C653.878 648.938 693.649 648.572 713.345 620.397C745.705 574.107 767.906 521.152 778.147 465.041C792.138 388.393 783.183 309.299 752.417 237.763C721.651 166.226 670.454 105.458 605.302 63.1449C540.149 20.8314 463.967 -1.12763 386.388 0.0445995C308.809 1.21674 233.319 25.4675 169.463 69.7302C105.607 113.993 56.2539 176.279 27.6441 248.713C-0.965711 321.147 -7.54688 400.476 8.73264 476.666C20.6501 532.442 44.4274 584.703 78.1585 629.994C98.6894 657.561 138.453 656.726 162.323 632.02C186.193 607.314 184.846 568.111 166.378 539.109C149.198 512.129 136.856 482.146 130.096 450.508C118.968 398.426 123.467 344.198 143.024 294.684C162.581 245.169 196.318 202.591 239.969 172.334C283.62 142.077 335.224 125.499 388.255 124.698C441.286 123.897 493.364 138.907 537.901 167.832C582.438 196.757 617.435 238.296 638.466 287.198C659.498 336.099 665.619 390.166 656.055 442.561C650.246 474.389 638.807 504.731 622.444 532.218C604.853 561.764 604.68 600.99 629.279 624.964Z" fill="#111111"/>
<path d="M229.535 670.235C197.676 687.225 185.054 727.759 209.617 754.291C225.85 771.825 244.569 787.022 265.266 799.348C304.805 822.894 350.036 835.052 396 834.486C441.964 833.921 486.885 820.656 525.838 796.144C546.229 783.313 564.572 767.66 580.373 749.733C604.281 722.605 590.675 682.394 558.412 666.192C526.148 649.99 487.052 665.732 456.485 684.966C437.859 696.687 419.158 716.059 394.401 716.059C372.423 716.329 350.795 697.757 331.889 686.498C300.862 668.02 261.394 653.245 229.535 670.235Z" fill="#111111"/>
<path d="M352.734 444.348C322.04 438.077 301.185 433.817 301.185 471.307C301.186 525.707 345.094 569.807 399.258 569.807C453.421 569.807 497.33 525.707 497.33 471.307C497.33 433.817 476.475 438.077 445.781 444.348C431.938 447.176 416.093 450.413 399.258 450.413C382.422 450.413 366.577 447.176 352.734 444.348Z" fill="#111111"/>
<path d="M262.893 353.579C262.893 368.416 250.918 380.443 236.147 380.443C221.375 380.443 209.4 368.416 209.4 353.579C209.4 338.743 221.375 326.716 236.147 326.716C250.918 326.716 262.893 338.743 262.893 353.579Z" fill="#111111"/>
<path d="M557.11 380.443C571.882 380.443 583.857 368.416 583.857 353.579C583.857 338.743 571.882 326.716 557.11 326.716C542.338 326.716 530.363 338.743 530.363 353.579C530.363 368.416 542.338 380.443 557.11 380.443Z" fill="#111111"/>
</svg>
